<mxfile host="Electron" modified="2024-04-24T20:01:43.363Z" agent="Mozilla/5.0 (Windows NT 10.0; Win64; x64) AppleWebKit/537.36 (KHTML, like Gecko) draw.io/23.1.5 Chrome/120.0.6099.109 Electron/28.1.0 Safari/537.36" etag="UVcKT7PXjKvvfuVNvjem" version="23.1.5" type="device">
  <diagram name="Page-1" id="13e1069c-82ec-6db2-03f1-153e76fe0fe0">
    <mxGraphModel dx="1178" dy="790" grid="1" gridSize="10" guides="1" tooltips="1" connect="1" arrows="1" fold="1" page="1" pageScale="1" pageWidth="1100" pageHeight="850" background="none" math="0" shadow="0">
      <root>
        <mxCell id="0" />
        <mxCell id="1" parent="0" />
        <mxCell id="541sYdxtEV6wNQ4HNWiL-1" value="Основное окно" style="shape=umlLifeline;perimeter=lifelinePerimeter;whiteSpace=wrap;html=1;container=1;collapsible=0;recursiveResize=0;outlineConnect=0;rounded=1;shadow=0;comic=0;labelBackgroundColor=none;strokeWidth=1;fontFamily=Verdana;fontSize=12;align=center;" vertex="1" parent="1">
          <mxGeometry x="380" y="120" width="140" height="280" as="geometry" />
        </mxCell>
        <mxCell id="541sYdxtEV6wNQ4HNWiL-2" value="" style="html=1;points=[];perimeter=orthogonalPerimeter;rounded=0;shadow=0;comic=0;labelBackgroundColor=none;strokeWidth=1;fontFamily=Verdana;fontSize=12;align=center;" vertex="1" parent="541sYdxtEV6wNQ4HNWiL-1">
          <mxGeometry x="65" y="100" width="10" height="170" as="geometry" />
        </mxCell>
        <mxCell id="541sYdxtEV6wNQ4HNWiL-3" value="Основное окно" style="shape=umlLifeline;perimeter=lifelinePerimeter;whiteSpace=wrap;html=1;container=1;collapsible=0;recursiveResize=0;outlineConnect=0;rounded=1;shadow=0;comic=0;labelBackgroundColor=none;strokeWidth=1;fontFamily=Verdana;fontSize=12;align=center;" vertex="1" parent="1">
          <mxGeometry x="590" y="120" width="130" height="280" as="geometry" />
        </mxCell>
        <mxCell id="541sYdxtEV6wNQ4HNWiL-4" value="" style="html=1;points=[];perimeter=orthogonalPerimeter;rounded=0;shadow=0;comic=0;labelBackgroundColor=none;strokeWidth=1;fontFamily=Verdana;fontSize=12;align=center;" vertex="1" parent="541sYdxtEV6wNQ4HNWiL-3">
          <mxGeometry x="60" y="120" width="10" height="140" as="geometry" />
        </mxCell>
        <mxCell id="541sYdxtEV6wNQ4HNWiL-5" value="Основное окно " style="shape=umlLifeline;perimeter=lifelinePerimeter;whiteSpace=wrap;html=1;container=1;collapsible=0;recursiveResize=0;outlineConnect=0;rounded=1;shadow=0;comic=0;labelBackgroundColor=none;strokeWidth=1;fontFamily=Verdana;fontSize=12;align=center;" vertex="1" parent="1">
          <mxGeometry x="130" y="120" width="110" height="280" as="geometry" />
        </mxCell>
        <mxCell id="541sYdxtEV6wNQ4HNWiL-6" value="" style="html=1;points=[];perimeter=orthogonalPerimeter;rounded=0;shadow=0;comic=0;labelBackgroundColor=none;strokeWidth=1;fontFamily=Verdana;fontSize=12;align=center;" vertex="1" parent="541sYdxtEV6wNQ4HNWiL-5">
          <mxGeometry x="50" y="100" width="10" height="180" as="geometry" />
        </mxCell>
        <mxCell id="541sYdxtEV6wNQ4HNWiL-7" value="Убедиться в наличии оцифрованных&amp;nbsp;&lt;br&gt;документов" style="html=1;verticalAlign=bottom;endArrow=block;labelBackgroundColor=none;fontFamily=Verdana;fontSize=12;edgeStyle=elbowEdgeStyle;elbow=vertical;" edge="1" parent="1" target="541sYdxtEV6wNQ4HNWiL-1">
          <mxGeometry x="0.0019" y="20" relative="1" as="geometry">
            <mxPoint x="190" y="230" as="sourcePoint" />
            <mxPoint x="325" y="230" as="targetPoint" />
            <Array as="points">
              <mxPoint x="260" y="230" />
            </Array>
            <mxPoint as="offset" />
          </mxGeometry>
        </mxCell>
        <mxCell id="541sYdxtEV6wNQ4HNWiL-8" value="Нажатие кнопки Запись" style="html=1;verticalAlign=bottom;endArrow=block;labelBackgroundColor=none;fontFamily=Verdana;fontSize=12;edgeStyle=elbowEdgeStyle;elbow=vertical;" edge="1" parent="1" target="541sYdxtEV6wNQ4HNWiL-3">
          <mxGeometry relative="1" as="geometry">
            <mxPoint x="460" y="260" as="sourcePoint" />
            <Array as="points" />
            <mxPoint x="625" y="259.5" as="targetPoint" />
          </mxGeometry>
        </mxCell>
        <mxCell id="541sYdxtEV6wNQ4HNWiL-9" value="&lt;div&gt;Убедиться в записи&lt;/div&gt;" style="html=1;verticalAlign=bottom;endArrow=block;labelBackgroundColor=none;fontFamily=Verdana;fontSize=12;elbow=vertical;edgeStyle=orthogonalEdgeStyle;curved=1;" edge="1" parent="1" target="541sYdxtEV6wNQ4HNWiL-5">
          <mxGeometry x="-0.6031" y="30" relative="1" as="geometry">
            <mxPoint x="670" y="300" as="sourcePoint" />
            <mxPoint x="1000" y="360" as="targetPoint" />
            <Array as="points">
              <mxPoint x="760" y="300" />
              <mxPoint x="760" y="340" />
            </Array>
            <mxPoint as="offset" />
          </mxGeometry>
        </mxCell>
      </root>
    </mxGraphModel>
  </diagram>
</mxfile>
